<svg width="20" height="21" viewBox="0 0 20 21" fill="none" xmlns="http://www.w3.org/2000/svg">
<g clip-path="url(#clip0_1_29)">
<path fill-rule="evenodd" clip-rule="evenodd" d="M14.2815 0.814293C14.4314 0.663876 14.6227 0.56143 14.8311 0.519969C15.0394 0.478508 15.2553 0.499903 15.4515 0.581436L18.49 1.84144C18.7521 1.94964 18.9605 2.15728 19.0698 2.41888C19.179 2.68049 19.1802 2.97473 19.0729 3.23715L17.8315 6.27572C17.7513 6.47193 17.6147 6.63995 17.4389 6.7585C17.2632 6.87706 17.0563 6.94083 16.8443 6.94175C16.6324 6.94266 16.4249 6.88069 16.2481 6.76366C16.0714 6.64663 15.9334 6.4798 15.8515 6.28429L15.3615 5.11286L3.02146 10.3857C2.89202 10.4411 2.75294 10.4704 2.61217 10.472C2.4714 10.4736 2.33169 10.4474 2.20102 10.395C2.07036 10.3426 1.95129 10.265 1.85063 10.1666C1.74996 10.0682 1.66966 9.95088 1.61432 9.82144C1.55898 9.69199 1.52967 9.55291 1.52808 9.41214C1.52649 9.27137 1.55264 9.13166 1.60503 9.001C1.65743 8.87033 1.73506 8.75127 1.83347 8.6506C1.93188 8.54993 2.04916 8.46964 2.17861 8.41429L14.5343 3.13572L14.0529 1.98572C13.9705 1.78981 13.9483 1.57383 13.989 1.36523C14.0297 1.15664 14.1315 0.964866 14.2815 0.814293ZM18.2143 8.32858C18.5932 8.32858 18.9566 8.47909 19.2245 8.747C19.4924 9.01491 19.6429 9.37827 19.6429 9.75715V19.7572C19.6429 19.9466 19.5676 20.1283 19.4337 20.2622C19.2997 20.3962 19.118 20.4714 18.9286 20.4714H15.3572C15.1677 20.4714 14.9861 20.3962 14.8521 20.2622C14.7181 20.1283 14.6429 19.9466 14.6429 19.7572V9.75715C14.6429 9.37827 14.7934 9.01491 15.0613 8.747C15.3292 8.47909 15.6926 8.32858 16.0715 8.32858H18.2143ZM12.0815 10.8886C11.8134 10.6212 11.4501 10.4711 11.0715 10.4714H8.92861C8.54973 10.4714 8.18636 10.6219 7.91845 10.8899C7.65054 11.1578 7.50003 11.5211 7.50003 11.9V19.7572C7.50003 19.9466 7.57529 20.1283 7.70924 20.2622C7.8432 20.3962 8.02488 20.4714 8.21432 20.4714H11.7857C11.9752 20.4714 12.1569 20.3962 12.2908 20.2622C12.4248 20.1283 12.5 19.9466 12.5 19.7572V11.9C12.5002 11.7122 12.4633 11.5262 12.3915 11.3526C12.3196 11.1791 12.2143 11.0214 12.0815 10.8886ZM3.92861 12.6143C4.30749 12.6143 4.67085 12.7648 4.93876 13.0327C5.20667 13.3006 5.35718 13.664 5.35718 14.0429V19.7572C5.35718 19.9466 5.28192 20.1283 5.14797 20.2622C5.01401 20.3962 4.83233 20.4714 4.64289 20.4714H1.07146C0.882023 20.4714 0.700342 20.3962 0.566387 20.2622C0.432433 20.1283 0.357178 19.9466 0.357178 19.7572V14.0429C0.357178 13.664 0.507688 13.3006 0.775597 13.0327C1.04351 12.7648 1.40687 12.6143 1.78575 12.6143H3.92861Z" fill="white"/>
</g>
<defs>
<clipPath id="clip0_1_29">
<rect width="20" height="20" fill="white" transform="translate(0 0.5)"/>
</clipPath>
</defs>
</svg>
