<svg width="49" height="49" viewBox="0 0 49 49" fill="none" xmlns="http://www.w3.org/2000/svg">
<path d="M39.8125 13.7812H9.1875C6.65044 13.7812 4.59375 15.8379 4.59375 18.375V36.75C4.59375 39.2871 6.65044 41.3438 9.1875 41.3438H39.8125C42.3496 41.3438 44.4062 39.2871 44.4062 36.75V18.375C44.4062 15.8379 42.3496 13.7812 39.8125 13.7812Z" stroke="white" stroke-width="3.5" stroke-linejoin="round"/>
<path d="M39.3684 13.7812V10.9101C39.3682 10.206 39.2126 9.51052 38.9126 8.87342C38.6127 8.23632 38.1758 7.67327 37.6332 7.22445C37.0906 6.77562 36.4556 6.45209 35.7736 6.27693C35.0915 6.10177 34.3792 6.0793 33.6875 6.21112L8.48313 10.513C7.38859 10.7216 6.40116 11.3056 5.69113 12.1643C4.9811 13.023 4.593 14.1025 4.59375 15.2168V19.9062" stroke="white" stroke-width="3.5" stroke-linejoin="round"/>
<path d="M35.2188 30.625C34.613 30.625 34.0209 30.4454 33.5173 30.1089C33.0137 29.7724 32.6212 29.2941 32.3894 28.7345C32.1576 28.1749 32.0969 27.5591 32.2151 26.965C32.3333 26.371 32.6249 25.8253 33.0532 25.397C33.4815 24.9687 34.0272 24.677 34.6213 24.5588C35.2154 24.4407 35.8311 24.5013 36.3907 24.7331C36.9503 24.9649 37.4286 25.3574 37.7651 25.8611C38.1016 26.3647 38.2813 26.9568 38.2813 27.5625C38.2813 28.3747 37.9586 29.1537 37.3843 29.728C36.8099 30.3023 36.031 30.625 35.2188 30.625Z" fill="white"/>
</svg>
