<svg width="25" height="25" viewBox="0 0 25 25" fill="none" xmlns="http://www.w3.org/2000/svg">
<path opacity="0.2" d="M23.209 14.9414L14.9414 23.209C14.7949 23.3554 14.5963 23.4376 14.3892 23.4376C14.182 23.4376 13.9834 23.3554 13.8369 23.209L4.13477 13.5098C3.98853 13.3634 3.90635 13.1649 3.90625 12.958V3.90625H12.958C13.1649 3.90635 13.3634 3.98853 13.5098 4.13477L23.209 13.834C23.2819 13.9066 23.3398 13.9929 23.3793 14.0879C23.4188 14.1829 23.4391 14.2848 23.4391 14.3877C23.4391 14.4906 23.4188 14.5925 23.3793 14.6875C23.3398 14.7825 23.2819 14.8688 23.209 14.9414Z" fill="white"/>
<path d="M23.7607 13.2813L14.0625 3.58302C13.9179 3.43729 13.7459 3.32176 13.5562 3.24313C13.3666 3.1645 13.1633 3.12435 12.958 3.12501H3.90626C3.69906 3.12501 3.50034 3.20732 3.35383 3.35383C3.20732 3.50034 3.12501 3.69906 3.12501 3.90626V12.958C3.12435 13.1633 3.1645 13.3666 3.24313 13.5562C3.32176 13.7459 3.43729 13.9179 3.58302 14.0625L13.2813 23.7607C13.4264 23.9059 13.5986 24.021 13.7882 24.0995C13.9778 24.1781 14.181 24.2185 14.3862 24.2185C14.5915 24.2185 14.7947 24.1781 14.9843 24.0995C15.1739 24.021 15.3461 23.9059 15.4912 23.7607L23.7607 15.4912C23.9059 15.3461 24.021 15.1739 24.0995 14.9843C24.1781 14.7947 24.2185 14.5915 24.2185 14.3862C24.2185 14.181 24.1781 13.9778 24.0995 13.7882C24.021 13.5986 23.9059 13.4264 23.7607 13.2813ZM14.3857 22.6563L4.68751 12.958V4.68751H12.958L22.6563 14.3857L14.3857 22.6563ZM9.37501 8.20313C9.37501 8.43491 9.30628 8.66148 9.17751 8.85419C9.04874 9.0469 8.86572 9.19711 8.65159 9.2858C8.43746 9.3745 8.20183 9.39771 7.97451 9.35249C7.74719 9.30727 7.53838 9.19566 7.37449 9.03177C7.2106 8.86788 7.09899 8.65908 7.05377 8.43175C7.00856 8.20443 7.03176 7.96881 7.12046 7.75468C7.20916 7.54054 7.35936 7.35752 7.55207 7.22875C7.74479 7.09999 7.97136 7.03126 8.20313 7.03126C8.51393 7.03126 8.812 7.15472 9.03177 7.37449C9.25154 7.59426 9.37501 7.89233 9.37501 8.20313Z" fill="white"/>
</svg>
